<?xml version="1.0" encoding="UTF-8"?>
<!-- Generated by Pixelmator Pro 2.4.5 -->
<svg width="89" height="108" viewBox="0 0 89 108" xmlns="http://www.w3.org/2000/svg" xmlns:xlink="http://www.w3.org/1999/xlink">
    <g id="Group">
        <g id="g1">
            <path id="Path" fill="#8f8f8f" stroke="none" d="M 15.5 16.699997 L 19.400002 19.800003 L 29.299999 18.099998 L 30.5 23.400002 C 30.5 23.400002 32.400002 30 26.700001 30.699997 C 15.5 32 21.400002 43.699997 25.400002 52 C 37.200001 49.400002 45 40.099998 45 26.599998 C 45 11.699997 33.799999 0.400002 17.299999 0.400002 L 3.6 0.400002 C 2.1 0.400002 1 1.599998 1 3 L 1 23.199997 L 5.5 18 L 15.5 16.699997 Z"/>
            <path id="path1" fill="#8f8f8f" stroke="none" d="M 17.1 21.900002 C 17 21.099998 16.299999 20.599998 15.6 20.699997 C 14.799999 20.800003 14.299999 21.5 14.4 22.199997 C 14.5 23 15.200001 23.5 15.9 23.400002 C 16.700001 23.300003 17.200001 22.699997 17.1 21.900002"/>
            <path id="path2" fill="#8f8f8f" stroke="none" d="M 3.200001 40.800003 C 8.4 43.099998 14.6 41.099998 15.9 36.099998 L 5.6 23.5 L 12.200001 36.699997 C 11.5 38.099998 8.200001 40.300003 3.200001 40.800003"/>
            <path id="path3" fill="#8f8f8f" stroke="none" d="M 11.1 107.300003 C 11.9 107.300003 12.9 107.199997 13.799999 107.099998 L 13.799999 103.5 C 13 103.599998 12.1 103.699997 11.4 103.699997 C 7.200001 103.699997 4.700001 101.199997 4.700001 97.099998 C 4.700001 93 7.299999 90.5 11.4 90.5 C 12.1 90.5 12.9 90.599998 13.799999 90.699997 L 13.799999 87.099998 C 12.9 87 12 86.900002 11.1 86.900002 C 4.799999 86.900002 0.6 91 0.6 97 C 0.5 103.199997 4.799999 107.300003 11.1 107.300003"/>
            <path id="path4" fill="#8f8f8f" stroke="none" d="M 16.1 97.199997 C 16.1 103.199997 20.400002 107.5 26.400002 107.5 C 32.400002 107.5 36.700001 103.199997 36.700001 97.199997 C 36.700001 91.199997 32.299999 86.900002 26.400002 86.900002 C 20.5 86.900002 16.1 91.199997 16.1 97.199997 M 32.700001 97.199997 C 32.700001 101 30.099998 103.800003 26.5 103.800003 C 22.799999 103.800003 20.299999 101.099998 20.299999 97.199997 C 20.299999 93.300003 22.900002 90.599998 26.5 90.599998 C 30 90.599998 32.700001 93.400002 32.700001 97.199997"/>
            <path id="path5" fill="#8f8f8f" stroke="none" d="M 44.299999 87.300003 L 37.599998 107 L 41.599998 107 L 42.5 103.900002 L 50 103.900002 L 50.900002 107 L 55 107 L 48.299999 87.300003 L 44.299999 87.300003 Z M 43.599998 100.699997 L 46.299999 92 L 49 100.699997 L 43.599998 100.699997 Z"/>
            <path id="path6" fill="#8f8f8f" stroke="none" d="M 66.400002 107.300003 C 67.199997 107.300003 68.199997 107.199997 69.099998 107.099998 L 69.099998 103.5 C 68.300003 103.599998 67.400002 103.699997 66.699997 103.699997 C 62.5 103.699997 60 101.199997 60 97.099998 C 60 93 62.599998 90.5 66.699997 90.5 C 67.400002 90.5 68.199997 90.599998 69.099998 90.699997 L 69.099998 87.099998 C 68.199997 87 67.300003 86.900002 66.400002 86.900002 C 60.099998 86.900002 55.900002 91 55.900002 97 C 55.900002 103.199997 60.099998 107.300003 66.400002 107.300003"/>
            <path id="path7" fill="#8f8f8f" stroke="none" d="M 88.099998 107 L 88.099998 87.300003 L 84.099998 87.300003 L 84.099998 95.199997 L 77 95.199997 L 77 87.300003 L 73.099998 87.300003 L 73.099998 107 L 77 107 L 77 98.900002 L 84.099998 98.900002 L 84.099998 107 Z"/>
            <path id="path8" fill="#8f8f8f" stroke="none" d="M 74.699997 83.5 C 82.900002 83.5 88.5 77.699997 88.5 69 L 88.5 66.900002 L 77.599998 66.900002 L 77.599998 71.900002 L 82.300003 71.900002 L 82.199997 72.300003 C 81.599998 75.900002 78.599998 78.199997 74.599998 78.199997 C 69.5 78.199997 66 74.400002 66 69.099998 C 66 63.699997 69.5 60 74.599998 60 C 77.300003 60 79.699997 61.199997 81.400002 63.300003 L 85.599998 59.400002 C 82.800003 56.199997 79.099998 54.599998 74.599998 54.599998 C 70.5 54.599998 66.800003 56 64.199997 58.699997 C 61.599998 61.300003 60.099998 65 60.099998 69.199997 C 60.199997 77.400002 66.300003 83.5 74.699997 83.5"/>
            <path id="path9" fill="#8f8f8f" stroke="none" d="M 20.200001 79.099998 C 22.900002 76.599998 24.299999 73.099998 24.299999 68.900002 C 24.299999 64.699997 22.900002 61.199997 20.200001 58.699997 C 17.6 56.199997 13.9 54.900002 9.5 54.900002 L 1 54.900002 L 1 82.699997 L 9.5 82.699997 C 13.9 82.900002 17.6 81.599998 20.200001 79.099998 M 6.700001 60.5 L 9.5 60.5 C 15 60.5 18.299999 63.699997 18.299999 69 C 18.299999 74.300003 15 77.5 9.5 77.5 L 6.700001 77.5 L 6.700001 60.5 Z"/>
            <path id="path10" fill="#8f8f8f" stroke="none" d="M 27.700001 69 C 27.700001 77.400002 33.799999 83.5 42.200001 83.5 C 50.599998 83.5 56.800003 77.400002 56.800003 69 C 56.800003 60.599998 50.699997 54.5 42.200001 54.5 C 33.799999 54.5 27.700001 60.599998 27.700001 69 M 50.800003 69 C 50.800003 74.199997 47.200001 78.099998 42.200001 78.099998 C 37.200001 78.099998 33.700001 74.400002 33.700001 69 C 33.700001 63.699997 37.200001 59.900002 42.200001 59.900002 C 47.200001 59.900002 50.800003 63.699997 50.800003 69"/>
        </g>
    </g>
</svg>
