<?xml version="1.0" encoding="UTF-8"?>
<!-- Generated by Pixelmator Pro 2.4.5 -->
<svg width="50" height="46" viewBox="0 0 50 46" xmlns="http://www.w3.org/2000/svg" xmlns:xlink="http://www.w3.org/1999/xlink">
    <g id="Group">
        <path id="Path" fill="#ae0480" fill-rule="evenodd" stroke="none" d="M 9.162304 28.970655 L 5.13089 20.97517 L 4.031414 15.835215 L 4.397906 12.097065 L 6.230367 8.255077 L 10.052356 4.9842 L 15.287958 3.374718 L 18.848167 4.257336 L 20.785341 5.34763 L 22.931936 8.151241 L 24.345551 11.370205 L 24.502617 13.550789 L 25.026178 14.381491 L 26.178011 15.575621 L 28.062828 16.146727 L 31.518324 13.083523 L 37.748692 8.566593 L 43.403141 7.060947 L 45.81152 8.358917 L 46.858639 10.591423 L 46.649216 15.056433 L 45.078533 21.805868 L 39.005234 28.711061 L 23.979057 41.690746 L 15.340314 35.616253 L 9.162304 28.970655 Z"/>
        <path id="path1" fill="#91016a" fill-rule="evenodd" stroke="none" d="M 16.596859 37.069977 C 16.596859 37.069977 23.844397 36.18396 32.565445 30.683973 C 36.860886 27.975021 41.821335 20.097342 45.81152 17.65237 C 47.943638 16.345919 40.785339 27.465012 40.785339 27.465012 L 24.188482 42.365688 L 17.853403 37.796841 L 16.596859 37.069977 Z"/>
        <path id="path2" fill="#000000" stroke="none" d="M 25.994764 42.95237 C 17.439793 36.815575 7.732985 29.915575 5.183246 19.106094 C 3.806283 13.27562 6.246074 7.652817 11.413613 5.088036 C 18.366495 1.635441 23.732985 7.927986 24.02618 14.044018 C 24.068064 14.916252 28.209423 14.807224 28.172771 14.018059 C 27.565443 1.427765 12.984294 -2.144241 4.921466 4.932278 C -9.308901 17.423933 13.031415 36.857113 22.000002 43.289841 C 22.947643 43.959595 26.230368 43.123699 25.994764 42.95237 L 25.994764 42.95237 Z"/>
        <path id="path3" fill="#000000" stroke="none" d="M 28.282722 16.806097 C 31.785339 13.363884 35.60733 9.802261 40.408379 8.291428 C 49.272251 5.503387 46.115181 17.564112 44.293194 21.079008 C 40.575916 28.243793 29.518328 35.974495 23.612566 41.327312 C 22.434555 42.391647 23.204189 46.815125 24.502617 45.63657 C 31.874344 38.95982 50.905762 22.781944 49.109947 11.525959 C 48.397915 7.050568 45.39267 5.383976 41.062828 4.885551 C 34.921467 4.179459 28.874346 10.508354 24.952881 14.365915 C 23.801048 15.497744 27.03665 18.031378 28.282722 16.806097 L 28.282722 16.806097 Z"/>
        <path id="Path-copy-2" fill="#ffffff" stroke="none" d="M 25.026178 43.87133 C 15.704505 37.184555 6.049809 29.999887 3.271563 18.221657 C 1.771196 11.868656 5.570605 5.75325 11.20126 2.958614 C 18.777258 -0.803406 24.630402 6.567886 24.949871 13.232037 C 24.99551 14.182434 28.050406 14.410683 28.010471 13.550793 C 27.348715 -0.16785 14.021022 -3.661064 5.235602 4.04966 C -10.270093 17.660816 12.969753 38.089638 22.742109 45.098873 C 23.774675 45.828648 24.445194 44.73296 24.188482 44.546276 L 25.026178 43.87133 Z"/>
        <path id="Path-copy" fill="#ffffff" stroke="none" d="M 28.952879 14.589161 C 32.828281 10.780594 35.4646 8.14806 40.77663 6.476425 C 50.583893 3.391659 47.879772 17.501528 45.863873 21.390518 C 41.750961 29.317858 29.780392 38.104561 23.246073 44.027088 C 21.942688 45.2047 23.484842 46.784801 24.921467 45.480812 C 33.07777 38.093452 51.829872 23.979927 49.842934 11.525959 C 49.055103 6.574249 46.884914 5.224159 42.094242 4.672688 C 35.299252 3.891445 30.83098 7.413593 26.492147 11.681717 C 25.217726 12.934006 26.055864 16.879387 27.434555 15.523703 L 28.952879 14.589161 Z"/>
    </g>
</svg>
