<svg width="39" height="39" viewBox="0 0 39 39" fill="none" xmlns="http://www.w3.org/2000/svg">
<path d="M14.0918 19.0126C15.3459 21.6025 17.4401 23.6913 20.0332 24.9388C20.2245 25.0294 20.436 25.0686 20.6471 25.0526C20.8581 25.0365 21.0613 24.9658 21.2367 24.8474L25.0453 22.3033C25.2136 22.1891 25.408 22.1195 25.6105 22.1009C25.8129 22.0822 26.0168 22.1152 26.2031 22.1966L33.3328 25.2587C33.5765 25.3602 33.7801 25.5389 33.9122 25.7673C34.0443 25.9958 34.0977 26.2614 34.0641 26.5232C33.8381 28.2869 32.9772 29.9079 31.6425 31.0828C30.3077 32.2577 28.5907 32.906 26.8125 32.9064C21.3175 32.9064 16.0477 30.7235 12.1621 26.838C8.27661 22.9525 6.09375 17.6826 6.09375 12.1876C6.09415 10.4095 6.74245 8.69239 7.91734 7.35767C9.09224 6.02295 10.7132 5.16205 12.477 4.93608C12.7387 4.90245 13.0043 4.95581 13.2328 5.08795C13.4613 5.22008 13.64 5.42366 13.7414 5.66733L16.8035 12.8123C16.8831 12.9956 16.9165 13.1957 16.9005 13.395C16.8846 13.5942 16.8199 13.7865 16.7121 13.9548L14.168 17.8244C14.0547 17.9994 13.9882 18.2005 13.9749 18.4086C13.9616 18.6166 14.0018 18.8246 14.0918 19.0126Z" fill="#27BB24" stroke="black" stroke-width="2" stroke-linecap="round" stroke-linejoin="round"/>
</svg>
