<svg width="200px" height="145px" viewBox="0 0 200 145" version="1.1" xmlns="http://www.w3.org/2000/svg" xmlns:xlink="http://www.w3.org/1999/xlink">
    <title>Group 2</title>
    <g id="Page-1" stroke="none" stroke-width="1" fill="none" fill-rule="evenodd">
        <g id="Group-2" transform="translate(100.000000, 72.500000) scale(-1, 1) translate(-100.000000, -72.500000) translate(-0.000000, 0.000000)" fill="#f7f7f5">
            <path d="M-3.55271368e-14,86.8130098 C-3.55271368e-14,71.9423853 1.03836809,54.8968027 21.0944765,29.5551076 C34.4652155,12.6606442 50.0583441,2.8089417 67.8738624,1.42108547e-14 L73.1462123,14.3618382 C56.8203763,26.7525085 48.6574582,38.2949259 48.6574582,48.9890904 C48.6574582,48.9890904 72.1724863,50.8207211 82.4408697,65.9287792 C92.7092531,81.0368373 94.09249,105.373369 85.2975187,121.415443 C76.5025474,137.457517 59.8846763,144.184251 46.9044205,144.184251 C33.9241647,144.184251 17.2583104,136.851937 10.2941426,125.252437 C3.32997475,113.652936 -3.55271368e-14,101.683634 -3.55271368e-14,86.8130098 Z" id="Path-2"/>
            <path d="M108,86.8130098 C108,71.9423853 109.038368,54.8968027 129.094477,29.5551076 C142.465215,12.6606442 158.058344,2.8089417 175.873862,1.42108547e-14 L181.146212,14.3618382 C164.820376,26.7525085 156.657458,38.2949259 156.657458,48.9890904 C156.657458,48.9890904 180.172486,50.8207211 190.44087,65.9287792 C200.709253,81.0368373 202.09249,105.373369 193.297519,121.415443 C184.502547,137.457517 167.884676,144.184251 154.90442,144.184251 C141.924165,144.184251 125.25831,136.851937 118.294143,125.252437 C111.329975,113.652936 108,101.683634 108,86.8130098 Z" id="Path-2-Copy"/>
        </g>
    </g>
</svg>