<?xml version="1.0" encoding="UTF-8"?>
<!-- Generated by Pixelmator Pro 2.4.5 -->
<svg width="386" height="440" viewBox="0 0 386 440" xmlns="http://www.w3.org/2000/svg" xmlns:xlink="http://www.w3.org/1999/xlink">
    <g id="layer1">
        <g id="g3013">
            <path id="polygon2989" fill="#264de4" stroke="none" d="M 386.91626 0.981018 L 351.667206 395.859985 L 193.221329 439.786377 L 35.211735 395.921844 L 9e-06 0.981018 Z"/>
            <path id="polygon2991" fill="#2965f1" stroke="none" d="M 321.490143 370.715454 L 351.612793 33.273315 L 193.45813 33.273315 L 193.45813 406.210907 Z"/>
            <path id="polygon2993" fill="#ebebeb" stroke="none" d="M 80.722137 179.75119 L 85.063477 228.188507 L 193.45813 228.188507 L 193.45813 179.75119 Z"/>
            <path id="polygon2995" fill="#ebebeb" stroke="none" d="M 193.45813 81.7117 L 193.290665 81.7117 L 71.99894 81.7117 L 76.40213 130.150116 L 193.45813 130.150116 Z"/>
            <path id="polygon2997" fill="#ebebeb" stroke="none" d="M 193.45813 355.945313 L 193.45813 305.549591 L 193.245865 305.606079 L 139.300278 291.039673 L 135.851746 252.408234 L 109.638412 252.408234 L 87.227737 252.408234 L 94.01387 328.462646 L 193.235199 356.007172 Z"/>
            <path id="polygon3005" fill="#ffffff" stroke="none" d="M 252.936523 228.188507 L 247.314133 291.008789 L 193.290665 305.590118 L 193.290665 355.983704 L 292.590942 328.462646 L 293.319458 320.279175 L 304.701843 192.758118 L 305.883728 179.75119 L 314.628265 81.7117 L 193.290665 81.7117 L 193.290665 130.150116 L 261.544525 130.150116 L 257.137085 179.75119 L 193.290665 179.75119 L 193.290665 228.188507 Z"/>
        </g>
    </g>
</svg>
